<?xml version="1.0" encoding="utf-8"?>
<!-- Generator: Adobe Illustrator 16.0.0, SVG Export Plug-In . SVG Version: 6.00 Build 0)  -->
<!DOCTYPE svg PUBLIC "-//W3C//DTD SVG 1.1//EN" "http://www.w3.org/Graphics/SVG/1.1/DTD/svg11.dtd">
<svg version="1.1" id="Layer_1" xmlns="http://www.w3.org/2000/svg" xmlns:xlink="http://www.w3.org/1999/xlink" x="0px" y="0px"
	 width="290px" height="36px" viewBox="0 0 290 36" enable-background="new 0 0 290 36" xml:space="preserve">
<g>
	<polygon points="1,1.249 4.064,1.249 10.388,14.51 16.711,1.249 19.775,1.249 19.775,22.746 16.68,22.746 16.68,7.383 
		11.425,18.264 9.367,18.264 4.104,7.383 4.104,22.746 1,22.746 	"/>
	<rect x="23.607" y="1.249" width="3.218" height="21.497"/>
	<polygon points="35.067,3.891 29.053,3.891 29.053,1.249 44.301,1.249 44.301,3.891 38.285,3.891 38.285,22.746 35.067,22.746 	"/>
	<path fill="#A41E35" d="M45.718,9.371c0-3.065,0.493-4.791,1.761-6.207C48.896,1.617,50.711,0.94,53.5,0.94
		c2.95,0,4.903,0.817,6.242,2.608c1.076,1.34,1.499,2.99,1.499,5.822v5.252c0,3.065-0.502,4.831-1.808,6.209
		c-1.41,1.574-3.218,2.222-5.934,2.222c-2.992,0-4.945-0.802-6.304-2.594c-1.057-1.354-1.479-3-1.479-5.837V9.371z M58.021,9.679
		c0-4.288-1.384-6.093-4.521-6.093c-3.21,0-4.564,1.805-4.564,6.093v4.637c0,4.317,1.354,6.136,4.564,6.136
		c3.138,0,4.521-1.818,4.521-6.136V9.679z"/>
	<path fill="#A41E35" d="M66.308,22.746h-2.469V6.398h5.39c2.155,0,3.298,0.396,4.207,1.317c0.847,0.909,1.196,2.058,1.196,3.769
		c0,1.893-0.436,3.149-1.421,4.055c-0.844,0.759-2.015,1.093-3.982,1.093h-2.921V22.746z M69.229,14.634
		c2.073,0,2.999-0.953,2.999-3.118c0-2.179-0.926-3.148-2.999-3.148h-2.982v6.267H69.229z"/>
	<polygon fill="#A41E35" points="76.492,6.399 86.289,6.399 86.289,8.429 78.93,8.429 78.93,13.483 85.181,13.483 85.181,15.512 
		78.93,15.512 78.93,20.741 86.361,20.741 86.361,22.746 76.492,22.746 	"/>
	<polygon fill="#A41E35" points="88.258,6.399 90.647,6.399 97.926,18.633 97.926,6.399 100.302,6.399 100.302,22.746 
		97.926,22.746 90.647,10.531 90.647,22.746 88.258,22.746 	"/>
	<polygon points="103.884,1.249 107.103,1.249 107.103,20.103 116.877,20.103 116.877,22.746 103.884,22.746 	"/>
	<polygon points="117.668,6.399 127.49,6.399 127.49,8.429 120.104,8.429 120.104,13.483 126.365,13.483 126.365,15.512 
		120.104,15.512 120.104,20.741 127.536,20.741 127.536,22.746 117.668,22.746 	"/>
	<path d="M132.153,19.335l-1.144,3.411h-2.656l5.964-16.347h2.346l5.964,16.347h-2.647l-1.151-3.411H132.153z M135.508,9.382
		l-2.75,7.984h5.465L135.508,9.382z"/>
	<path d="M145.633,22.746h-2.461V6.399H149c1.982,0,3.132,0.363,3.979,1.212c0.81,0.786,1.183,1.881,1.183,3.434
		c0,2.71-0.985,4.103-3.225,4.634l3.553,7.067h-2.675l-3.284-6.857h-2.898V22.746z M148.878,13.952c1.968,0,2.847-0.877,2.847-2.772
		c0-1.966-0.894-2.812-2.982-2.812h-3.163v5.585H148.878z"/>
	<polygon points="156.477,6.399 158.854,6.399 166.164,18.633 166.164,6.399 168.541,6.399 168.541,22.746 166.164,22.746 
		158.854,10.531 158.854,22.746 156.477,22.746 	"/>
	<rect x="171.431" y="6.399" width="2.466" height="16.347"/>
	<polygon points="176.789,6.399 179.165,6.399 186.43,18.633 186.43,6.399 188.807,6.399 188.807,22.746 186.43,22.746 
		179.165,10.531 179.165,22.746 176.789,22.746 	"/>
	<path d="M197.556,13.992h5.495v2.64c0,2.271-0.322,3.467-1.168,4.532c-1.041,1.233-2.529,1.828-4.643,1.828
		c-2.363,0-3.861-0.654-4.876-2.048c-0.756-1.047-1.03-2.312-1.03-4.646v-3.421c0-2.513,0.319-3.813,1.27-4.919
		c1.018-1.165,2.41-1.709,4.498-1.709c3.377,0,5.299,1.497,5.466,4.368l-2.271,0.141c-0.243-1.68-1.317-2.531-3.118-2.531
		c-2.469,0-3.421,1.321-3.421,4.817v3.117c0,3.528,0.952,4.845,3.451,4.845c2.286,0,3.407-1.256,3.407-3.86v-1.257h-3.06V13.992z"/>
	<polygon points="206.043,1.249 209.262,1.249 209.262,20.103 219.038,20.103 219.038,22.746 206.043,22.746 	"/>
	<rect x="219.603" y="6.399" width="2.427" height="16.347"/>
	<path d="M224.946,6.399h6.164c1.743,0,2.696,0.28,3.536,0.983c0.834,0.771,1.271,1.969,1.271,3.346
		c0,1.604-0.516,2.701-1.746,3.497l0.209,0.136c0.748,0.482,0.939,0.681,1.211,1.178c0.434,0.703,0.629,1.668,0.629,2.727
		c0,1.632-0.498,2.877-1.443,3.603c-0.83,0.666-1.698,0.878-3.363,0.878h-6.468V6.399z M230.916,13.408
		c0.908,0,1.391-0.137,1.86-0.541c0.438-0.368,0.741-1.155,0.741-1.971c0-1.696-0.841-2.529-2.602-2.529h-3.559v5.041H230.916z
		 M231.248,20.778c1.712,0,2.555-0.878,2.555-2.708c0-1.828-0.845-2.694-2.555-2.694h-3.891v5.402H231.248z"/>
	<path d="M240.527,22.746h-2.451V6.399h5.807c2.014,0,3.152,0.363,4.002,1.212c0.803,0.786,1.18,1.881,1.18,3.434
		c0,2.71-0.984,4.103-3.234,4.634l3.586,7.067h-2.723l-3.26-6.857h-2.906V22.746z M243.803,13.952c1.971,0,2.852-0.877,2.852-2.772
		c0-1.966-0.92-2.812-3.006-2.812h-3.164v5.585H243.803z"/>
	<path d="M253.984,19.335l-1.127,3.411h-2.643l5.957-16.347h2.312l5.957,16.347h-2.6l-1.154-3.411H253.984z M257.355,9.382
		l-2.773,7.984h5.502L257.355,9.382z"/>
	<path d="M267.48,22.746h-2.494V6.399h5.869c1.973,0,3.098,0.363,3.939,1.212c0.846,0.786,1.18,1.881,1.18,3.434
		c0,2.71-0.938,4.103-3.176,4.634l3.541,7.067h-2.672l-3.324-6.857h-2.863V22.746z M270.738,13.952c1.969,0,2.848-0.877,2.848-2.772
		c0-1.966-0.941-2.812-3.008-2.812h-3.139v5.585H270.738z"/>
	<polygon points="281.363,16.843 276.248,6.399 278.852,6.399 282.637,14.414 286.332,6.399 288.9,6.399 283.793,16.843 
		283.793,22.746 281.363,22.746 	"/>
	<polygon points="7.579,34.896 7.579,29.153 5.289,33.458 4.98,33.458 2.661,29.153 2.661,34.896 1.155,34.896 1.155,25.366 
		2.469,25.366 5.144,30.37 7.818,25.366 9.086,25.366 9.086,34.896 	"/>
	<path d="M13.566,34.897h-1.602v-6.032c0-2.357,1.438-3.662,3.168-3.662c1.769,0,3.208,1.305,3.208,3.662v6.032h-1.603v-3.187
		h-3.172V34.897z M16.738,28.865c0-1.399-0.737-2.076-1.605-2.076c-0.848,0-1.566,0.677-1.566,2.076v1.276h3.172V28.865z"/>
	<path d="M23.386,35.06c-1.043,0-1.793-0.346-2.692-1.027l0.2-1.418c0.949,0.503,1.717,0.844,2.536,0.844
		c0.705,0,1.644-0.375,1.644-1.169c0-1.812-4.506-1.113-4.506-4.285c0-1.649,1.456-2.801,3.144-2.801
		c1.075,0,1.813,0.355,2.801,1.151l-0.526,1.255c-0.662-0.449-1.449-0.824-2.226-0.824c-0.949,0-1.543,0.5-1.543,1.074
		c0,1.705,4.525,1.274,4.525,4.199C26.742,34.015,25.111,35.06,23.386,35.06"/>
	<path d="M31.023,35.06c-1.028,0-1.824-0.346-2.677-1.027l0.153-1.418c0.977,0.503,1.764,0.844,2.568,0.844
		c0.72,0,1.643-0.375,1.643-1.169c0-1.812-4.5-1.113-4.5-4.285c0-1.649,1.439-2.801,3.126-2.801c1.093,0,1.796,0.355,2.781,1.151
		l-0.48,1.255c-0.661-0.449-1.489-0.824-2.224-0.824c-0.953,0-1.544,0.5-1.544,1.074c0,1.705,4.525,1.274,4.525,4.199
		C34.396,34.015,32.719,35.06,31.023,35.06"/>
	<path d="M38.055,34.897h-1.575v-6.032c0-2.357,1.435-3.662,3.154-3.662c1.782,0,3.202,1.305,3.202,3.662v6.032h-1.583v-3.187
		h-3.198V34.897z M41.253,28.865c0-1.399-0.738-2.076-1.619-2.076c-0.875,0-1.579,0.677-1.579,2.076v1.276h3.198V28.865z"/>
	<path d="M48.647,25.203c1.189,0,2.406,0.738,3.068,1.831l-1.005,0.88c-0.624-0.792-1.265-1.125-1.971-1.125
		c-1.263,0-2.374,1.266-2.374,3.353c0,2.042,1.111,3.316,2.374,3.316c0.706,0,1.347-0.341,1.971-1.131l1.005,0.9
		c-0.662,1.093-1.879,1.832-3.068,1.832c-2.406,0-3.997-2.224-3.997-4.918C44.65,27.428,46.241,25.203,48.647,25.203"/>
	<polygon points="58.794,28.865 58.794,25.366 60.395,25.366 60.395,34.897 58.794,34.897 58.794,30.445 55.621,30.445 
		55.621,34.897 54.02,34.897 54.02,25.366 55.621,25.366 55.621,28.865 	"/>
	<path d="M64.634,25.366v6.049c0,1.381,0.702,2.043,1.574,2.043c0.882,0,1.62-0.662,1.62-2.043v-6.049h1.587v6.049
		c0,2.33-1.423,3.645-3.207,3.645c-1.718,0-3.154-1.314-3.154-3.645v-6.049H64.634z"/>
	<path d="M74.235,35.06c-1.024,0-1.792-0.346-2.692-1.027l0.199-1.418c0.95,0.503,1.75,0.844,2.569,0.844
		c0.72,0,1.611-0.375,1.611-1.169c0-1.812-4.506-1.113-4.506-4.285c0-1.649,1.477-2.801,3.164-2.801c1.055,0,1.793,0.355,2.78,1.151
		l-0.494,1.255c-0.695-0.449-1.481-0.824-2.25-0.824c-0.957,0-1.546,0.5-1.546,1.074c0,1.705,4.521,1.274,4.521,4.199
		C77.592,34.015,75.961,35.06,74.235,35.06"/>
	<polygon points="79.68,25.366 84.461,25.366 84.461,26.93 81.275,26.93 81.275,28.865 84.461,28.865 84.461,30.445 81.275,30.445 
		81.275,33.296 84.461,33.296 84.461,34.896 79.68,34.896 	"/>
	<polygon points="86.216,26.93 86.216,25.366 93.195,25.366 93.195,26.93 90.508,26.93 90.508,34.896 88.928,34.896 88.928,26.93 	
		"/>
	<polygon points="93.87,26.93 93.87,25.366 100.848,25.366 100.848,26.93 98.136,26.93 98.136,34.896 96.554,34.896 96.554,26.93 	
		"/>
	<path d="M104.802,35.06c-1.045,0-1.794-0.346-2.693-1.027l0.2-1.418c0.949,0.503,1.717,0.844,2.543,0.844
		c0.702,0,1.638-0.375,1.638-1.169c0-1.812-4.506-1.113-4.506-4.285c0-1.649,1.462-2.801,3.149-2.801
		c1.068,0,1.807,0.355,2.794,1.151l-0.526,1.255c-0.662-0.449-1.449-0.824-2.225-0.824c-0.949,0-1.543,0.5-1.543,1.074
		c0,1.705,4.525,1.274,4.525,4.199C108.158,34.015,106.527,35.06,104.802,35.06"/>
	<polygon points="116.272,26.93 114.695,26.93 114.695,25.366 119.475,25.366 119.475,26.93 117.873,26.93 117.873,33.296 
		119.475,33.296 119.475,34.896 114.695,34.896 114.695,33.296 116.272,33.296 	"/>
	<polygon points="127.263,25.366 128.7,25.366 128.7,34.896 127.49,34.896 123.764,28.789 123.764,34.896 122.325,34.896 
		122.325,25.366 123.532,25.366 127.263,31.43 	"/>
	<path d="M133.747,35.06c-1.044,0-1.793-0.346-2.693-1.027l0.201-1.418c0.948,0.503,1.724,0.844,2.565,0.844
		c0.701,0,1.614-0.375,1.614-1.169c0-1.812-4.506-1.113-4.506-4.285c0-1.649,1.477-2.801,3.164-2.801
		c1.055,0,1.792,0.355,2.779,1.151l-0.521,1.255c-0.668-0.449-1.454-0.824-2.23-0.824c-0.949,0-1.543,0.5-1.543,1.074
		c0,1.705,4.525,1.274,4.525,4.199C137.104,34.015,135.473,35.06,133.747,35.06"/>
	<polygon points="138.074,26.93 138.074,25.366 145.07,25.366 145.07,26.93 142.389,26.93 142.389,34.896 140.787,34.896 
		140.787,26.93 	"/>
	<polygon points="148.44,26.93 146.84,26.93 146.84,25.366 151.596,25.366 151.596,26.93 149.994,26.93 149.994,33.296 
		151.596,33.296 151.596,34.896 146.84,34.896 146.84,33.296 148.44,33.296 	"/>
	<polygon points="153.365,26.93 153.365,25.366 160.36,25.366 160.36,26.93 157.647,26.93 157.647,34.896 156.047,34.896 
		156.047,26.93 	"/>
	<path d="M163.7,25.366v6.049c0,1.381,0.719,2.043,1.602,2.043c0.862,0,1.572-0.662,1.572-2.043v-6.049h1.601v6.049
		c0,2.33-1.438,3.645-3.173,3.645c-1.764,0-3.202-1.314-3.202-3.645v-6.049H163.7z"/>
	<polygon points="170.24,26.93 170.24,25.366 177.222,25.366 177.222,26.93 174.509,26.93 174.509,34.896 172.914,34.896 
		172.914,26.93 	"/>
	<polygon points="178.96,25.366 183.74,25.366 183.74,26.93 180.561,26.93 180.561,28.865 183.74,28.865 183.74,30.445 
		180.561,30.445 180.561,33.296 183.74,33.296 183.74,34.896 178.96,34.896 	"/>
	<path d="M194.246,25.203c2.15,0,3.336,2.225,3.336,4.938c0,2.694-1.186,4.918-3.336,4.918c-2.157,0-3.33-2.224-3.33-4.918
		C190.916,27.428,192.089,25.203,194.246,25.203 M194.246,33.458c1.055,0,1.649-1.506,1.649-3.316c0-1.832-0.595-3.353-1.649-3.353
		c-1.08,0-1.643,1.521-1.643,3.353C192.604,31.952,193.166,33.458,194.246,33.458"/>
	<polygon points="200.3,25.366 205.396,25.366 205.396,26.93 201.885,26.93 201.885,28.865 205.396,28.865 205.396,30.445 
		201.885,30.445 201.885,34.896 200.3,34.896 	"/>
	<polygon points="211.27,26.93 211.27,25.366 218.249,25.366 218.249,26.93 215.536,26.93 215.536,34.896 213.978,34.896 
		213.978,26.93 	"/>
	<polygon points="220.021,25.366 224.791,25.366 224.791,26.93 221.588,26.93 221.588,28.865 224.791,28.865 224.791,30.445 
		221.588,30.445 221.588,33.296 224.791,33.296 224.791,34.896 220.021,34.896 	"/>
	<path d="M230.853,25.203c1.17,0,2.39,0.738,3.095,1.831l-1.005,0.88c-0.671-0.792-1.294-1.125-2.012-1.125
		c-1.257,0-2.332,1.266-2.332,3.353c0,2.042,1.075,3.316,2.332,3.316c0.718,0,1.341-0.341,2.012-1.131l1.005,0.9
		c-0.705,1.093-1.925,1.832-3.095,1.832c-2.395,0-4.017-2.224-4.017-4.918C226.836,27.428,228.458,25.203,230.853,25.203"/>
	<polygon points="240.135,28.865 240.135,25.366 241.699,25.366 241.699,34.897 240.135,34.897 240.135,30.445 236.926,30.445 
		236.926,34.897 235.354,34.897 235.354,25.366 236.926,25.366 236.926,28.865 	"/>
	<polygon points="249.047,25.366 250.484,25.366 250.484,34.896 249.271,34.896 245.545,28.789 245.545,34.896 244.131,34.896 
		244.131,25.366 245.295,25.366 249.047,31.43 	"/>
	<path d="M255.393,25.203c2.184,0,3.373,2.225,3.373,4.938c0,2.694-1.189,4.918-3.373,4.918c-2.125,0-3.32-2.224-3.32-4.918
		C252.072,27.428,253.268,25.203,255.393,25.203 M255.393,33.458c1.125,0,1.688-1.506,1.688-3.316c0-1.832-0.562-3.353-1.688-3.353
		c-1.051,0-1.635,1.521-1.635,3.353C253.758,31.952,254.342,33.458,255.393,33.458"/>
	<polygon points="262.141,33.296 264.852,33.296 264.852,34.896 260.537,34.896 260.537,25.366 262.141,25.366 	"/>
	<path d="M268.977,25.203c2.164,0,3.336,2.225,3.336,4.938c0,2.694-1.172,4.918-3.336,4.918c-2.111,0-3.318-2.224-3.318-4.918
		C265.658,27.428,266.865,25.203,268.977,25.203 M268.977,33.458c1.055,0,1.648-1.506,1.648-3.316c0-1.832-0.594-3.353-1.648-3.353
		c-1.037,0-1.631,1.521-1.631,3.353C267.346,31.952,267.939,33.458,268.977,33.458"/>
	<path d="M278.566,31.711h-1.574v-1.569h3.148v4.753h-0.48l-0.346-0.593c-0.584,0.488-1.266,0.758-1.986,0.758
		c-2.254,0-3.861-2.224-3.861-4.918c0-2.714,1.607-4.938,3.861-4.938c1.125,0,2.293,0.738,2.963,1.831l-0.977,0.88
		c-0.584-0.792-1.17-1.125-1.879-1.125c-1.229,0-2.205,1.266-2.205,3.353c0,2.042,0.977,3.316,2.205,3.316
		c0.42,0,0.734-0.105,1.131-0.355V31.711z"/>
	<polygon points="281.023,25.366 282.9,25.366 285.012,29.277 287.168,25.366 289,25.366 285.777,31.07 285.777,34.896 
		284.225,34.896 284.225,31.07 	"/>
</g>
</svg>
