<?xml version="1.0" encoding="utf-8"?>
<!-- Generator: Adobe Illustrator 28.0.0, SVG Export Plug-In . SVG Version: 6.00 Build 0)  -->
<svg version="1.1" xmlns="http://www.w3.org/2000/svg" xmlns:xlink="http://www.w3.org/1999/xlink" x="0px" y="0px"
width="300" height="57" viewBox="0 0 4172.97 796.37" style="enable-background:new 0 0 4172.97 796.37;" xml:space="preserve">
<g id="Background">
</g>
<g id="Artwork">
	<g>
		<path d="M720,725.88h160v-480H720V725.88z M960,165.88h400v-160H960V165.88z M720,5.88h160v160H720V5.88z M480,725.88h160v-720
			H480V725.88z M240,565.88h160v-560H240V565.88z M0,725.88h160v-720H0V725.88z M960,725.88h160v-480H960V725.88z"/>
		<g>
			<path d="M1522.08,425.88h60.84v249.23h140.98v50.77h-201.82V425.88z"/>
			<path d="M1754.1,425.88h57.06v51.19h-57.06V425.88z M1754.1,510.63h57.06v215.25h-57.06V510.63z"/>
			<path d="M1903.89,699.03h-0.84v26.85h-54.97v-300h57.06v110.77h1.26c11.75-18.04,30.21-31.89,60-31.89
				c54.13,0,92.73,46.57,92.73,113.71c0,69.65-36.92,113.71-91.05,113.71C1937.87,732.17,1916.47,719.17,1903.89,699.03z
				 M2001.23,618.46c0-39.86-15.94-67.55-47.83-67.55c-36.08,0-49.51,28.95-49.51,68.81c0,39.44,19.72,64.62,51.61,64.62
				C1984.87,684.34,2001.23,660,2001.23,618.46z"/>
			<path d="M2140.53,545.04h1.26c13.01-24.34,27.69-36.92,52.87-36.92c6.29,0,10.07,0.42,13.43,1.68v49.93h-1.26
				c-37.34-3.78-64.2,15.94-64.2,61.26v104.9h-57.06V510.63h54.97V545.04z"/>
			<path d="M2355.35,701.96h-0.84c-10.91,16.36-26.43,28.95-63.36,28.95c-44.06,0-75.11-23.08-75.11-65.88
				c0-47.41,38.6-62.52,86.44-69.23c35.66-5.04,52.03-7.97,52.03-24.34c0-15.52-12.17-25.59-36.08-25.59
				c-26.85,0-39.86,9.65-41.54,30.21h-50.77c1.68-37.76,29.79-70.91,92.73-70.91c64.62,0,90.63,28.95,90.63,79.3v109.51
				c0,16.36,2.52,26.01,7.55,29.79v2.1h-54.97C2358.71,721.68,2356.61,711.61,2355.35,701.96z M2355.77,649.93v-32.31
				c-10.07,5.88-25.59,9.23-39.86,12.59c-29.79,6.71-44.48,13.43-44.48,33.57c0,20.14,13.43,27.27,33.57,27.27
				C2337.73,691.05,2355.77,670.91,2355.77,649.93z"/>
			<path d="M2500.52,545.04h1.26c13.01-24.34,27.69-36.92,52.87-36.92c6.29,0,10.07,0.42,13.43,1.68v49.93h-1.26
				c-37.34-3.78-64.2,15.94-64.2,61.26v104.9h-57.06V510.63h54.97V545.04z"/>
			<path d="M2599.54,751.47h20.14c22.66,0,31.89-11.75,31.89-29.37c0-11.75-4.2-25.59-16.36-58.32l-57.9-153.15h60l31.89,96.92
				c6.71,19.72,13.85,46.99,13.85,46.99h0.84c0,0,5.87-27.27,12.59-46.99l30.21-96.92h57.48l-75.11,220.7
				c-16.36,47.83-32.31,65.04-75.94,65.04h-33.57V751.47z"/>
		</g>
		<g>
			<path d="M1509.07,156.51C1509.07,66.71,1565.29,0,1653.83,0c88.53,0,144.34,66.71,144.34,156.51
				c0,89.79-55.8,156.09-144.34,156.09C1565.29,312.59,1509.07,246.3,1509.07,156.51z M1736.07,156.51
				c0-60-26.85-106.58-81.82-106.58s-83.08,46.57-83.08,106.58c0,59.58,28.11,106.16,83.08,106.16S1736.07,216.09,1736.07,156.51z"
				/>
			<path d="M1826.69,90.63h54.97v26.85h1.26c13.85-18.88,33.99-32.73,63.36-32.73c57.06,0,93.57,46.57,93.57,113.71
				c0,69.65-37.76,113.71-93.15,113.71c-30.21,0-49.93-12.17-62.1-30.63h-0.84v94.83h-57.06V90.63z M1981.94,200.14
				c0-40.7-14.27-69.23-49.51-69.23c-35.67,0-49.93,30.63-49.93,69.23c0,39.02,18.04,64.62,52.03,64.62
				C1963.48,264.76,1981.94,240.84,1981.94,200.14z"/>
			<path d="M2055.78,198.04c0-63.78,43.22-113.29,106.16-113.29c69.23,0,106.16,52.87,106.16,129.65h-156.09
				c4.2,33.15,22.66,53.71,54.97,53.71c22.24,0,35.25-10.07,41.54-26.43h56.22c-7.97,38.18-41.96,70.49-97.34,70.49
				C2096.06,312.17,2055.78,262.24,2055.78,198.04z M2112.85,174.97h95.67c-1.68-27.27-19.72-46.15-45.73-46.15
				C2132.57,128.81,2117.88,146.86,2112.85,174.97z"/>
			<path d="M2350.33,120h1.26c14.69-23.08,34.41-35.25,63.78-35.25c44.48,0,74.27,33.57,74.27,80.56v140.56h-57.06V173.71
				c0-23.08-13.43-39.44-37.34-39.44c-25.17,0-43.64,20.14-43.64,49.51v122.1h-57.06V90.63h55.8V120z"/>
			<path d="M2599.97,5.88h60.84v249.23h140.98v50.77h-201.82V5.88z"/>
			<path d="M2815.22,198.04c0-63.78,43.22-113.29,106.16-113.29c69.23,0,106.16,52.87,106.16,129.65h-156.09
				c4.2,33.15,22.66,53.71,54.97,53.71c22.24,0,35.25-10.07,41.54-26.43h56.22c-7.97,38.18-41.96,70.49-97.34,70.49
				C2855.5,312.17,2815.22,262.24,2815.22,198.04z M2872.28,174.97h95.67c-1.68-27.27-19.72-46.15-45.73-46.15
				C2892,128.81,2877.32,146.86,2872.28,174.97z"/>
			<path d="M3182.77,281.96h-0.84c-10.91,16.36-26.43,28.95-63.36,28.95c-44.06,0-75.11-23.08-75.11-65.88
				c0-47.41,38.6-62.52,86.44-69.23c35.66-5.04,52.03-7.97,52.03-24.34c0-15.52-12.17-25.59-36.08-25.59
				c-26.85,0-39.86,9.65-41.54,30.21h-50.77c1.68-37.76,29.79-70.91,92.73-70.91c64.62,0,90.63,28.95,90.63,79.3v109.51
				c0,16.36,2.52,26.01,7.55,29.79v2.1h-54.97C3186.12,301.68,3184.03,291.61,3182.77,281.96z M3183.19,229.93v-32.31
				c-10.07,5.88-25.59,9.23-39.86,12.59c-29.79,6.71-44.48,13.43-44.48,33.57c0,20.14,13.43,27.27,33.57,27.27
				C3165.14,271.05,3183.19,250.91,3183.19,229.93z"/>
			<path d="M3327.94,125.04h1.26c13.01-24.34,27.69-36.92,52.87-36.92c6.29,0,10.07,0.42,13.43,1.68v49.93h-1.26
				c-37.34-3.78-64.2,15.94-64.2,61.26v104.9h-57.06V90.63h54.97V125.04z"/>
			<path d="M3476.05,120h1.26c14.69-23.08,34.41-35.25,63.78-35.25c44.48,0,74.27,33.57,74.27,80.56v140.56h-57.06V173.71
				c0-23.08-13.43-39.44-37.34-39.44c-25.17,0-43.64,20.14-43.64,49.51v122.1h-57.06V90.63h55.8V120z"/>
			<path d="M3650.59,5.88h57.06v51.19h-57.06V5.88z M3650.59,90.63h57.06v215.25h-57.06V90.63z"/>
			<path d="M3800.38,120h1.26c14.69-23.08,34.41-35.25,63.78-35.25c44.48,0,74.27,33.57,74.27,80.56v140.56h-57.06V173.71
				c0-23.08-13.43-39.44-37.34-39.44c-25.17,0-43.64,20.14-43.64,49.51v122.1h-57.06V90.63h55.8V120z"/>
			<path d="M3969.05,312.17h56.64c4.62,13.43,16.78,23.92,43.22,23.92c32.31,0,47.83-15.52,47.83-44.9v-23.5h-1.26
				c-12.59,14.27-28.95,25.17-56.22,25.17c-47.83,0-94.83-37.76-94.83-102.8c0-64.2,38.6-105.32,93.15-105.32
				c26.85,0,46.57,10.49,59.58,28.53h0.84V90.63h54.97v198.88c0,30.21-9.65,50.77-25.59,65.46c-18.04,16.78-45.74,24.34-77.62,24.34
				C4011.01,379.31,3974.92,354.13,3969.05,312.17z M4119.68,188.81c0-31.47-16.78-58.32-51.19-58.32
				c-28.95,0-48.25,22.66-48.25,58.74c0,36.5,19.3,57.9,48.67,57.9C4104.99,247.14,4119.68,220.7,4119.68,188.81z"/>
		</g>
	</g>
</g>
<g id="Guides">
</g>
</svg>
