<?xml version="1.0" encoding="utf-8"?>
<!-- Generator: Adobe Illustrator 13.0.0, SVG Export Plug-In . SVG Version: 6.00 Build 14948)  -->
<!DOCTYPE svg PUBLIC "-//W3C//DTD SVG 1.1//EN" "http://www.w3.org/Graphics/SVG/1.1/DTD/svg11.dtd">
<svg version="1.1" id="Layer_1" xmlns="http://www.w3.org/2000/svg" xmlns:xlink="http://www.w3.org/1999/xlink" x="0px" y="0px"
	 width="88px" height="31px" viewBox="0 0 88 31" enable-background="new 0 0 88 31" xml:space="preserve">
<g>
	<polygon fill-rule="evenodd" clip-rule="evenodd" fill="#CCDEE9" points="0,0 88,0 88,31 0,31 0,0 	"/>
	<polygon fill-rule="evenodd" clip-rule="evenodd" fill="#FFFFFF" points="0.366,0 30.366,0 30.366,31 0.366,31 0.366,0 	"/>
	<g>
		<defs>
			<polygon id="SVGID_1_" points="0,30 88,30 88,31 0,31 0,30 			"/>
		</defs>
		<use xlink:href="#SVGID_1_"  overflow="visible" fill-rule="evenodd" clip-rule="evenodd" fill="#6F7073"/>
		<clipPath id="SVGID_2_">
			<use xlink:href="#SVGID_1_"  overflow="visible"/>
		</clipPath>
		<polygon clip-path="url(#SVGID_2_)" fill-rule="evenodd" clip-rule="evenodd" fill="#64686E" points="0,0 88,0 88,31 0,31 0,0 		
			"/>
		<polygon clip-path="url(#SVGID_2_)" fill-rule="evenodd" clip-rule="evenodd" fill="#6F7073" points="0.366,0 30.366,0 30.366,31 
			0.366,31 0.366,0 		"/>
	</g>
	<g>
		<defs>
			<polygon id="SVGID_3_" points="87,0 88,0 88,30 87,30 87,0 			"/>
		</defs>
		<use xlink:href="#SVGID_3_"  overflow="visible" fill-rule="evenodd" clip-rule="evenodd" fill="#6F7073"/>
		<clipPath id="SVGID_4_">
			<use xlink:href="#SVGID_3_"  overflow="visible"/>
		</clipPath>
		<polygon clip-path="url(#SVGID_4_)" fill-rule="evenodd" clip-rule="evenodd" fill="#64686E" points="0,0 88,0 88,31 0,31 0,0 		
			"/>
		<polygon clip-path="url(#SVGID_4_)" fill-rule="evenodd" clip-rule="evenodd" fill="#404041" points="0,30 88,30 88,31 0,31 0,30 
					"/>
	</g>
	<g>
		<defs>
			<rect id="SVGID_5_" x="87" y="30" width="1" height="0"/>
		</defs>
		<clipPath id="SVGID_6_">
			<use xlink:href="#SVGID_5_"  overflow="visible"/>
		</clipPath>
		<polygon clip-path="url(#SVGID_6_)" fill-rule="evenodd" clip-rule="evenodd" fill="#3C3C3F" points="0,0 88,0 88,31 0,31 0,0 		
			"/>
	</g>
	<polygon fill-rule="evenodd" clip-rule="evenodd" fill="#D1D3D4" points="0,0 1,0 1,31 0,31 0,0 	"/>
	<g>
		<defs>
			<polygon id="SVGID_7_" points="2.16,29.005 87.16,29.005 87.16,30.005 2.16,30.005 2.16,29.005 			"/>
		</defs>
		<use xlink:href="#SVGID_7_"  overflow="visible" fill-rule="evenodd" clip-rule="evenodd" fill="#BEC0C2"/>
		<clipPath id="SVGID_8_">
			<use xlink:href="#SVGID_7_"  overflow="visible"/>
		</clipPath>
		<polygon clip-path="url(#SVGID_8_)" fill-rule="evenodd" clip-rule="evenodd" fill="#97A3B1" points="0,0 88,0 88,31 0,31 0,0 		
			"/>
		<polygon clip-path="url(#SVGID_8_)" fill-rule="evenodd" clip-rule="evenodd" fill="#BEC0C2" points="0.366,0 30.366,0 30.366,31 
			0.366,31 0.366,0 		"/>
		<polygon clip-path="url(#SVGID_8_)" fill-rule="evenodd" clip-rule="evenodd" fill="#5C5D60" points="0,30 88,30 88,31 0,31 0,30 
					"/>
	</g>
	<g>
		<defs>
			<rect id="SVGID_9_" x="2.16" y="30" width="85" height="0.005"/>
		</defs>
		<clipPath id="SVGID_10_">
			<use xlink:href="#SVGID_9_"  overflow="visible"/>
		</clipPath>
		<polygon clip-path="url(#SVGID_10_)" fill-rule="evenodd" clip-rule="evenodd" fill="#55585C" points="0,0 88,0 88,31 0,31 0,0 		
			"/>
		<polygon clip-path="url(#SVGID_10_)" fill-rule="evenodd" clip-rule="evenodd" fill="#5C5D60" points="0.366,0 30.366,0 
			30.366,31 0.366,31 0.366,0 		"/>
	</g>
	<g>
		<defs>
			<polygon id="SVGID_11_" points="2.16,29.005 87.16,29.005 87.16,30.005 2.16,30.005 2.16,29.005 			"/>
		</defs>
		<clipPath id="SVGID_12_">
			<use xlink:href="#SVGID_11_"  overflow="visible"/>
		</clipPath>
		<polygon clip-path="url(#SVGID_12_)" fill-rule="evenodd" clip-rule="evenodd" fill="#5C5D60" points="87,0 88,0 88,30 87,30 
			87,0 		"/>
	</g>
	<g>
		<defs>
			<rect id="SVGID_13_" x="87" y="29.005" width="0.16" height="0.995"/>
		</defs>
		<clipPath id="SVGID_14_">
			<use xlink:href="#SVGID_13_"  overflow="visible"/>
		</clipPath>
		<polygon clip-path="url(#SVGID_14_)" fill-rule="evenodd" clip-rule="evenodd" fill="#55585C" points="0,0 88,0 88,31 0,31 0,0 		
			"/>
		<polygon clip-path="url(#SVGID_14_)" fill-rule="evenodd" clip-rule="evenodd" fill="#323132" points="0,30 88,30 88,31 0,31 
			0,30 		"/>
	</g>
	<g>
		<defs>
			<rect id="SVGID_15_" x="87" y="30" width="0.16" height="0"/>
		</defs>
		<clipPath id="SVGID_16_">
			<use xlink:href="#SVGID_15_"  overflow="visible"/>
		</clipPath>
		<polygon clip-path="url(#SVGID_16_)" fill-rule="evenodd" clip-rule="evenodd" fill="#303032" points="0,0 88,0 88,31 0,31 0,0 		
			"/>
	</g>
	<g>
		<defs>
			<polygon id="SVGID_17_" points="85.956,0 86.956,0 86.956,29 85.956,29 85.956,0 			"/>
		</defs>
		<use xlink:href="#SVGID_17_"  overflow="visible" fill-rule="evenodd" clip-rule="evenodd" fill="#BEC0C2"/>
		<clipPath id="SVGID_18_">
			<use xlink:href="#SVGID_17_"  overflow="visible"/>
		</clipPath>
		<polygon clip-path="url(#SVGID_18_)" fill-rule="evenodd" clip-rule="evenodd" fill="#97A3B1" points="0,0 88,0 88,31 0,31 0,0 		
			"/>
	</g>
	<polygon fill-rule="evenodd" clip-rule="evenodd" fill="#D1D3D4" points="0,0 88,0 88,1 0,1 0,0 	"/>
	<polygon fill-rule="evenodd" clip-rule="evenodd" points="41.549,5.886 43.073,5.886 43.706,12.36 44.467,8.172 45.915,8.172 
		46.801,12.36 47.297,5.886 48.832,5.886 47.816,14.705 46.192,14.705 45.188,10.074 44.249,14.705 42.636,14.705 41.549,5.886 	"/>
	<path fill-rule="evenodd" clip-rule="evenodd" d="M51.65,5.886h2.132l2.381,8.819H54.42l-0.543-2.18h-2.334l-0.531,2.18H49.27
		L51.65,5.886L51.65,5.886z M52.713,7.481l-0.82,3.609h1.647L52.713,7.481L52.713,7.481z"/>
	<polygon fill-rule="evenodd" clip-rule="evenodd" points="57.615,7.422 57.615,5.886 62.867,5.886 62.867,7.422 61.112,7.422 
		61.112,13.169 62.867,13.169 62.867,14.705 57.615,14.705 57.615,13.169 59.37,13.169 59.37,7.422 57.615,7.422 	"/>
	<polygon fill-rule="evenodd" clip-rule="evenodd" points="63.847,10.364 67.573,10.364 67.573,12.083 63.847,12.083 63.847,10.364 
			"/>
	<path fill-rule="evenodd" clip-rule="evenodd" fill="#114777" d="M71.927,5.886h2.133l2.381,8.819h-1.742l-0.544-2.18H71.82
		l-0.531,2.18h-1.742L71.927,5.886L71.927,5.886z M72.99,7.481l-0.821,3.609h1.648L72.99,7.481L72.99,7.481z"/>
	<path fill-rule="evenodd" clip-rule="evenodd" fill="#114777" d="M79.21,5.886h2.134l2.38,8.819h-1.742l-0.544-2.18h-2.333
		l-0.531,2.18H76.83L79.21,5.886L79.21,5.886z M80.273,7.481l-0.821,3.609h1.648L80.273,7.481L80.273,7.481z"/>
	<polygon fill-rule="evenodd" clip-rule="evenodd" points="33.923,18.234 35.333,18.234 35.918,24.224 36.623,20.35 37.962,20.35 
		38.782,24.224 39.241,18.234 40.662,18.234 39.722,26.394 38.219,26.394 37.29,22.109 36.421,26.394 34.929,26.394 33.923,18.234 	
		"/>
	<path fill-rule="evenodd" clip-rule="evenodd" d="M46.569,26.158c-0.255,0.132-0.522,0.23-0.803,0.296
		c-0.281,0.065-0.576,0.098-0.885,0.098c-1.101,0-1.94-0.362-2.52-1.087c-0.579-0.726-0.869-1.772-0.869-3.143
		c0-1.374,0.29-2.423,0.869-3.148c0.58-0.725,1.419-1.087,2.52-1.088c0.309,0,0.606,0.033,0.891,0.1
		c0.284,0.064,0.55,0.163,0.797,0.295v1.792c-0.276-0.255-0.546-0.44-0.809-0.558c-0.259-0.12-0.526-0.18-0.803-0.18
		c-0.59,0-1.037,0.234-1.339,0.704c-0.299,0.467-0.448,1.161-0.448,2.083c0,0.918,0.149,1.612,0.448,2.082
		c0.302,0.467,0.749,0.699,1.339,0.699c0.277,0,0.544-0.058,0.803-0.174c0.263-0.121,0.532-0.309,0.809-0.563V26.158L46.569,26.158z
		"/>
	<path fill-rule="evenodd" clip-rule="evenodd" d="M49.783,18.234h1.973l2.203,8.159h-1.612l-0.503-2.017h-2.158l-0.492,2.017
		h-1.612L49.783,18.234L49.783,18.234z M50.768,19.71l-0.76,3.339h1.524L50.768,19.71L50.768,19.71z"/>
	<path fill-rule="evenodd" clip-rule="evenodd" d="M58.905,24.918V23.36h-1.104v-1.355h2.515v3.738
		c-0.31,0.267-0.652,0.469-1.028,0.606c-0.371,0.136-0.77,0.202-1.196,0.202c-1.057,0-1.873-0.366-2.448-1.099
		c-0.576-0.735-0.863-1.779-0.863-3.131c0-1.374,0.289-2.423,0.868-3.148c0.583-0.725,1.423-1.087,2.521-1.088
		c0.327,0,0.65,0.048,0.967,0.143c0.316,0.091,0.613,0.224,0.891,0.398v1.788c-0.226-0.292-0.486-0.511-0.781-0.656
		c-0.292-0.149-0.612-0.224-0.962-0.224c-0.612,0-1.069,0.23-1.372,0.693c-0.303,0.459-0.454,1.157-0.454,2.094
		c0,0.907,0.146,1.598,0.438,2.071c0.292,0.474,0.717,0.71,1.274,0.71c0.167,0,0.313-0.014,0.437-0.043
		C58.729,25.027,58.828,24.98,58.905,24.918L58.905,24.918z"/>
	<path fill-rule="evenodd" clip-rule="evenodd" d="M68.313,24.973h3.438v1.421h-5.181v-1.377l0.874-0.929
		c1.038-1.104,1.669-1.783,1.891-2.039c0.273-0.313,0.471-0.59,0.591-0.83c0.12-0.245,0.181-0.485,0.181-0.723
		c0-0.364-0.111-0.644-0.334-0.841c-0.219-0.2-0.529-0.301-0.934-0.301c-0.289,0-0.613,0.059-0.974,0.175
		c-0.357,0.113-0.73,0.278-1.12,0.498v-1.504c0.39-0.142,0.771-0.249,1.142-0.322c0.376-0.076,0.734-0.115,1.077-0.115
		c0.864,0,1.541,0.203,2.033,0.607c0.496,0.4,0.743,0.949,0.743,1.645c0,0.321-0.055,0.622-0.164,0.902
		c-0.105,0.28-0.29,0.592-0.552,0.935c-0.193,0.248-0.723,0.806-1.59,1.673C68.963,24.316,68.59,24.692,68.313,24.973L68.313,24.973
		z"/>
	<polygon fill-rule="evenodd" clip-rule="evenodd" points="74.014,24.389 75.834,24.389 75.834,26.394 74.014,26.394 74.014,24.389 
			"/>
	<path fill-rule="evenodd" clip-rule="evenodd" d="M77.683,22.322c0-1.396,0.24-2.45,0.722-3.165
		c0.484-0.714,1.198-1.07,2.143-1.071c0.947,0,1.66,0.357,2.143,1.071c0.483,0.715,0.726,1.77,0.726,3.165
		c0,1.392-0.242,2.445-0.726,3.159c-0.481,0.714-1.195,1.07-2.143,1.07c-0.944,0-1.658-0.356-2.143-1.07
		C77.923,24.768,77.683,23.714,77.683,22.322L77.683,22.322z M80.547,19.535c-0.412,0-0.713,0.221-0.902,0.661
		c-0.189,0.437-0.284,1.146-0.284,2.126c0,0.977,0.095,1.685,0.284,2.126c0.189,0.438,0.49,0.655,0.902,0.655
		c0.415,0,0.718-0.218,0.906-0.655c0.189-0.441,0.285-1.149,0.285-2.126c0-0.98-0.096-1.689-0.285-2.126
		C81.265,19.756,80.962,19.535,80.547,19.535L80.547,19.535z"/>
	<path d="M26.711,9.826l0.27,1.642l-0.956,1.828c0,0-0.367-0.776-0.976-1.205c-0.514-0.362-0.848-0.44-1.372-0.333
		c-0.671,0.139-1.434,0.942-1.766,1.932c-0.398,1.185-0.402,1.759-0.416,2.286c-0.022,0.845,0.111,1.343,0.111,1.343
		s-0.581-1.072-0.575-2.645c0.004-1.122,0.18-2.14,0.7-3.144c0.457-0.883,1.136-1.413,1.738-1.475
		c0.623-0.064,1.115,0.236,1.496,0.561c0.399,0.341,0.804,1.087,0.804,1.087L26.711,9.826L26.711,9.826z"/>
	<path d="M26.829,19.113c0,0-0.422,0.755-0.686,1.045c-0.263,0.291-0.734,0.804-1.316,1.061c-0.582,0.256-0.887,0.304-1.461,0.249
		c-0.574-0.056-1.108-0.388-1.295-0.526s-0.665-0.548-0.935-0.928c-0.27-0.382-0.692-1.144-0.692-1.144s0.235,0.764,0.382,1.087
		c0.085,0.187,0.346,0.758,0.715,1.254c0.345,0.463,1.015,1.261,2.033,1.441c1.018,0.179,1.717-0.278,1.891-0.389
		c0.173-0.111,0.538-0.416,0.769-0.663c0.241-0.258,0.469-0.587,0.596-0.784c0.092-0.144,0.242-0.437,0.242-0.437L26.829,19.113
		L26.829,19.113z"/>
	<polygon fill="#005B9C" points="9.25,9.898 11.552,17.724 13.854,9.898 15.52,9.898 11.71,22.755 11.552,22.755 9.171,14.787 
		6.79,22.755 6.631,22.755 2.822,9.898 4.488,9.898 6.79,17.724 8.346,12.454 7.584,9.898 9.25,9.898 	"/>
	<path fill="#005B9C" d="M20.252,18.628c0,1.165-0.309,2.144-0.928,2.937c-0.619,0.794-1.421,1.19-2.405,1.19
		c-0.741,0-1.386-0.235-1.937-0.706c-0.55-0.472-0.958-1.108-1.222-1.913l1.301-0.539c0.191,0.486,0.442,0.87,0.754,1.15
		s0.68,0.421,1.103,0.421c0.444,0,0.82-0.249,1.127-0.746c0.307-0.497,0.46-1.095,0.46-1.794c0-0.772-0.165-1.37-0.492-1.793
		c-0.381-0.497-0.979-0.747-1.794-0.747h-0.635v-0.761l2.223-3.841h-2.683l-0.746,1.27h-0.476V9.898h6.19v0.777l-2.349,4.048
		c0.826,0.265,1.45,0.746,1.873,1.444C20.04,16.867,20.252,17.687,20.252,18.628L20.252,18.628z"/>
</g>
</svg>
